<svg xmlns="http://www.w3.org/2000/svg" fill="none" viewBox="0 0 283 64"><path fill="black" d="M141 16c-11 0-19 7-19 18s9 18 20 18c7 0 13-3 16-7l-7-5c-2 3-6 4-9 4-5 0-9-3-10-7h28v-3c0-11-8-18-19-18zm-9 15c1-4 4-7 9-7s8 3 9 7h-18zm117-15c-11 0-19 7-19 18s9 18 20 18c7 0 13-3 16-7l-7-5c-2 3-6 4-9 4-5 0-9-3-10-7h28v-3c0-11-8-18-19-18zm-9 15c1-4 4-7 9-7s8 3 9 7h-18zm-39 3c0 6 4 10 10 10 4 0 7-2 8-4l7 5c-3 4-8 7-15 7-11 0-19-7-19-18s8-18 19-18c7 0 12 3 15 7l-7 5c-1-2-4-4-8-4-6 0-10 4-10 10zm83-28v46h-9V6h9zm18 14c-3 0-6 1-8 3-2 3-3 6-3 10s1 7 3 10 5 3 8 3 6-1 8-3c2-3 3-6 3-10s-1-7-3-10-5-3-8-3zm0-8c7 0 13 3 17 8s6 10 6 17-2 12-6 17-10 8-17 8-13-3-17-8-6-10-6-17 2-12 6-17 10-8 17-8zm68 10c0-8-6-10-10-10-3 0-7 1-9 6l-8-3c3-7 10-11 17-11 4 0 9 1 12 4s5 7 5 13v28h-9v-5c-2 4-7 6-12 6-4 0-8-1-11-4s-5-7-5-11c0-5 2-9 6-12s9-4 14-4l10-1v4zm0 8h-10c-4 0-7 1-9 3s-3 4-3 7 1 5 3 7 5 3 8 3c4 0 7-2 10-4 2-3 3-6 3-10v-6zM18 46L0 16h11l7 14 7-14h11L18 46z"/></svg>
